<?xml version="1.0" encoding="UTF-8" standalone="no"?>
<!-- Created with Inkscape (http://www.inkscape.org/) -->
<svg
   xmlns:dc="http://purl.org/dc/elements/1.1/"
   xmlns:cc="http://creativecommons.org/ns#"
   xmlns:rdf="http://www.w3.org/1999/02/22-rdf-syntax-ns#"
   xmlns:svg="http://www.w3.org/2000/svg"
   xmlns="http://www.w3.org/2000/svg"
   xmlns:sodipodi="http://sodipodi.sourceforge.net/DTD/sodipodi-0.dtd"
   xmlns:inkscape="http://www.inkscape.org/namespaces/inkscape"
   width="744.09448819"
   height="1052.3622047"
   id="svg2"
   sodipodi:version="0.32"
   inkscape:version="0.46"
   sodipodi:docname="DFF.svg"
   inkscape:output_extension="org.inkscape.output.svg.inkscape">
  <defs
     id="defs4">
    <inkscape:perspective
       sodipodi:type="inkscape:persp3d"
       inkscape:vp_x="0 : 526.18109 : 1"
       inkscape:vp_y="0 : 1000 : 0"
       inkscape:vp_z="744.09448 : 526.18109 : 1"
       inkscape:persp3d-origin="372.04724 : 350.78739 : 1"
       id="perspective10" />
  </defs>
  <sodipodi:namedview
     id="base"
     pagecolor="#ffffff"
     bordercolor="#666666"
     borderopacity="1.0"
     gridtolerance="10000"
     guidetolerance="10"
     objecttolerance="10"
     inkscape:pageopacity="0.0"
     inkscape:pageshadow="2"
     inkscape:zoom="1.4142136"
     inkscape:cx="404.24243"
     inkscape:cy="451.70064"
     inkscape:document-units="px"
     inkscape:current-layer="layer1"
     showgrid="true"
     showguides="false"
     inkscape:window-width="1024"
     inkscape:window-height="714"
     inkscape:window-x="0"
     inkscape:window-y="27">
    <inkscape:grid
       type="xygrid"
       id="grid2393" />
  </sodipodi:namedview>
  <metadata
     id="metadata7">
    <rdf:RDF>
      <cc:Work
         rdf:about="">
        <dc:format>image/svg+xml</dc:format>
        <dc:type
           rdf:resource="http://purl.org/dc/dcmitype/StillImage" />
      </cc:Work>
    </rdf:RDF>
  </metadata>
  <g
     inkscape:label="Layer 1"
     inkscape:groupmode="layer"
     id="layer1">
    <g
       id="g3314"
       transform="translate(-14.2,-32.286487)">
      <rect
         y="357.36218"
         x="535"
         height="45"
         width="30"
         id="rect2492"
         style="fill:#ffffff;stroke:#000000;stroke-width:1.20000005;stroke-miterlimit:4;stroke-dasharray:none" />
      <path
         id="path2494"
         d="M 534.92752,396.63466 L 542.37248,392.41219 L 534.92752,388.18972 L 534.92752,396.63466 z"
         style="fill:none;fill-rule:evenodd;stroke:#000000;stroke-width:0.55504328;stroke-linecap:butt;stroke-linejoin:miter;stroke-miterlimit:4;stroke-dasharray:none;stroke-opacity:1" />
      <path
         id="path3266"
         d="M 525,392.36218 L 535,392.36218"
         style="fill:none;fill-rule:evenodd;stroke:#000000;stroke-width:1px;stroke-linecap:butt;stroke-linejoin:miter;stroke-opacity:1" />
      <path
         id="path3268"
         d="M 565,367.36218 L 575,367.36218"
         style="fill:none;fill-rule:evenodd;stroke:#000000;stroke-width:1px;stroke-linecap:butt;stroke-linejoin:miter;stroke-opacity:1" />
      <path
         id="path3270"
         d="M 535,367.36218 L 525,367.36218"
         style="fill:none;fill-rule:evenodd;stroke:#000000;stroke-width:1px;stroke-linecap:butt;stroke-linejoin:miter;stroke-opacity:1" />
      <path
         id="path3272"
         d="M 544.2,364.64867 L 541.62853,364.64867 L 541.62853,371.26218 L 540.67148,371.26218 L 540.67148,364.64867 L 538.1,364.64867 L 538.1,363.76218 L 544.2,363.76218 L 544.2,364.64867"
         style="font-size:12px;font-style:normal;font-weight:normal;fill:#000000;fill-opacity:1;stroke:none;stroke-width:1px;stroke-linecap:butt;stroke-linejoin:miter;stroke-opacity:1;font-family:Bitstream Vera Sans" />
      <path
         id="path3278"
         d="M 561.5,372.23045 C 561.31599,372.27748 561.13351,372.3104 560.95258,372.32925 C 560.7747,372.35119 560.59221,372.36218 560.40519,372.36218 C 559.87156,372.36218 559.4422,372.21162 559.11713,371.91052 C 558.79513,371.61257 558.62033,371.18443 558.59269,370.62617 C 558.51912,370.63871 558.44703,370.64659 558.37651,370.64968 C 558.30903,370.65594 558.24308,370.65913 558.1787,370.65913 C 557.69724,370.65913 557.25866,370.57755 556.86304,370.41447 C 556.47051,370.25138 556.13623,370.0146 555.86021,369.70409 C 555.58423,369.3935 555.37108,369.01247 555.22082,368.56079 C 555.07357,368.10912 555,367.59321 555,367.01297 C 555,366.44215 555.07357,365.9309 555.22082,365.47922 C 555.368,365.02449 555.58266,364.63556 555.86486,364.31249 C 556.13472,364.00515 556.46896,363.76992 556.86764,363.60682 C 557.26937,363.44376 557.70644,363.36219 558.1787,363.36218 C 558.66937,363.36219 559.10945,363.44529 559.49893,363.61152 C 559.89146,363.77461 560.22421,364.00829 560.49716,364.31249 C 560.77628,364.62613 560.98934,365.01032 561.13661,365.46518 C 561.28685,365.91994 561.36201,366.43588 561.36201,367.01297 C 561.36201,367.86921 561.19023,368.59059 560.84677,369.17712 C 560.50635,369.76365 560.04789,370.17448 559.47136,370.40978 C 559.48361,370.76729 559.56639,371.04485 559.71974,371.24246 C 559.87309,371.44003 560.15214,371.53884 560.55698,371.53884 C 560.68274,371.53884 560.83143,371.51848 561.0032,371.47768 C 561.178,371.44003 561.30221,371.40552 561.37581,371.37414 L 561.5,371.37414 L 561.5,372.23045 M 560.41438,367.01297 C 560.41436,366.10345 560.21503,365.40243 559.81636,364.90999 C 559.41765,364.41442 558.87332,364.16667 558.18326,364.16667 C 557.48712,364.16667 556.93972,364.41442 556.54106,364.90999 C 556.14542,365.40243 555.94764,366.10345 555.94764,367.01297 C 555.94764,367.93198 556.15001,368.63608 556.55484,369.12538 C 556.95966,369.61154 557.50249,369.85461 558.18326,369.85461 C 558.86413,369.85461 559.40542,369.61154 559.80718,369.12538 C 560.21193,368.63608 560.41436,367.93198 560.41438,367.01297"
         style="font-size:12px;font-style:normal;font-weight:normal;fill:#000000;fill-opacity:1;stroke:none;stroke-width:1px;stroke-linecap:butt;stroke-linejoin:miter;stroke-opacity:1;font-family:Bitstream Vera Sans" />
    </g>
    <path
       style="fill:none;fill-rule:evenodd;stroke:#000000;stroke-width:1px;stroke-linecap:butt;stroke-linejoin:miter;stroke-opacity:1"
       d="M 600,322.36218 L 600,347.36218 L 610,352.36218 L 610,372.36218 L 600,377.36218 L 600,402.36218 L 640,382.36218 L 640,342.36218 L 600,322.36218 z"
       id="path3302"
       sodipodi:nodetypes="ccccccccc" />
    <path
       sodipodi:type="arc"
       style="fill:#ffffff;stroke:#000000;stroke-width:1.20000005;stroke-miterlimit:4;stroke-dasharray:none"
       id="path3304"
       sodipodi:cx="500"
       sodipodi:cy="482.36218"
       sodipodi:rx="25"
       sodipodi:ry="25"
       d="M 525,482.36218 A 25,25 0 1 1 475,482.36218 A 25,25 0 1 1 525,482.36218 z"
       transform="translate(-60,-135)" />
    <path
       style="fill:none;fill-rule:evenodd;stroke:#000000;stroke-width:1px;stroke-linecap:butt;stroke-linejoin:miter;stroke-opacity:1"
       d="M 310,552.36218 L 590,552.36218"
       id="path3306" />
    <path
       style="fill:none;fill-rule:evenodd;stroke:#000000;stroke-width:1px;stroke-linecap:butt;stroke-linejoin:miter;stroke-opacity:1"
       d="M 590,572.36218 L 310,572.36218"
       id="path3308" />
    <path
       style="fill:none;fill-rule:evenodd;stroke:#000000;stroke-width:1px;stroke-linecap:butt;stroke-linejoin:miter;stroke-opacity:1"
       d="M 310,592.36218 L 590,592.36218"
       id="path3310" />
    <path
       style="fill:none;fill-rule:evenodd;stroke:#000000;stroke-width:1px;stroke-linecap:butt;stroke-linejoin:miter;stroke-opacity:1"
       d="M 590,612.36218 L 310,612.36218"
       id="path3312" />
    <g
       id="g3323"
       transform="translate(-215,129.9)">
      <rect
         y="357.36218"
         x="535"
         height="45"
         width="30"
         id="rect3325"
         style="fill:#ffffff;stroke:#000000;stroke-width:1.20000005;stroke-miterlimit:4;stroke-dasharray:none" />
      <path
         id="path3327"
         d="M 534.92752,396.63466 L 542.37248,392.41219 L 534.92752,388.18972 L 534.92752,396.63466 z"
         style="fill:none;fill-rule:evenodd;stroke:#000000;stroke-width:0.55504328;stroke-linecap:butt;stroke-linejoin:miter;stroke-miterlimit:4;stroke-dasharray:none;stroke-opacity:1" />
      <path
         id="path3329"
         d="M 525,392.36218 L 535,392.36218"
         style="fill:none;fill-rule:evenodd;stroke:#000000;stroke-width:1px;stroke-linecap:butt;stroke-linejoin:miter;stroke-opacity:1" />
      <path
         id="path3331"
         d="M 565,367.36218 L 575,367.36218"
         style="fill:none;fill-rule:evenodd;stroke:#000000;stroke-width:1px;stroke-linecap:butt;stroke-linejoin:miter;stroke-opacity:1" />
      <path
         id="path3333"
         d="M 535,367.36218 L 525,367.36218"
         style="fill:none;fill-rule:evenodd;stroke:#000000;stroke-width:1px;stroke-linecap:butt;stroke-linejoin:miter;stroke-opacity:1" />
      <path
         id="path3335"
         d="M 544.2,364.64867 L 541.62853,364.64867 L 541.62853,371.26218 L 540.67148,371.26218 L 540.67148,364.64867 L 538.1,364.64867 L 538.1,363.76218 L 544.2,363.76218 L 544.2,364.64867"
         style="font-size:12px;font-style:normal;font-weight:normal;fill:#000000;fill-opacity:1;stroke:none;stroke-width:1px;stroke-linecap:butt;stroke-linejoin:miter;stroke-opacity:1;font-family:Bitstream Vera Sans" />
      <path
         id="path3337"
         d="M 561.5,372.23045 C 561.31599,372.27748 561.13351,372.3104 560.95258,372.32925 C 560.7747,372.35119 560.59221,372.36218 560.40519,372.36218 C 559.87156,372.36218 559.4422,372.21162 559.11713,371.91052 C 558.79513,371.61257 558.62033,371.18443 558.59269,370.62617 C 558.51912,370.63871 558.44703,370.64659 558.37651,370.64968 C 558.30903,370.65594 558.24308,370.65913 558.1787,370.65913 C 557.69724,370.65913 557.25866,370.57755 556.86304,370.41447 C 556.47051,370.25138 556.13623,370.0146 555.86021,369.70409 C 555.58423,369.3935 555.37108,369.01247 555.22082,368.56079 C 555.07357,368.10912 555,367.59321 555,367.01297 C 555,366.44215 555.07357,365.9309 555.22082,365.47922 C 555.368,365.02449 555.58266,364.63556 555.86486,364.31249 C 556.13472,364.00515 556.46896,363.76992 556.86764,363.60682 C 557.26937,363.44376 557.70644,363.36219 558.1787,363.36218 C 558.66937,363.36219 559.10945,363.44529 559.49893,363.61152 C 559.89146,363.77461 560.22421,364.00829 560.49716,364.31249 C 560.77628,364.62613 560.98934,365.01032 561.13661,365.46518 C 561.28685,365.91994 561.36201,366.43588 561.36201,367.01297 C 561.36201,367.86921 561.19023,368.59059 560.84677,369.17712 C 560.50635,369.76365 560.04789,370.17448 559.47136,370.40978 C 559.48361,370.76729 559.56639,371.04485 559.71974,371.24246 C 559.87309,371.44003 560.15214,371.53884 560.55698,371.53884 C 560.68274,371.53884 560.83143,371.51848 561.0032,371.47768 C 561.178,371.44003 561.30221,371.40552 561.37581,371.37414 L 561.5,371.37414 L 561.5,372.23045 M 560.41438,367.01297 C 560.41436,366.10345 560.21503,365.40243 559.81636,364.90999 C 559.41765,364.41442 558.87332,364.16667 558.18326,364.16667 C 557.48712,364.16667 556.93972,364.41442 556.54106,364.90999 C 556.14542,365.40243 555.94764,366.10345 555.94764,367.01297 C 555.94764,367.93198 556.15001,368.63608 556.55484,369.12538 C 556.95966,369.61154 557.50249,369.85461 558.18326,369.85461 C 558.86413,369.85461 559.40542,369.61154 559.80718,369.12538 C 560.21193,368.63608 560.41436,367.93198 560.41438,367.01297"
         style="font-size:12px;font-style:normal;font-weight:normal;fill:#000000;fill-opacity:1;stroke:none;stroke-width:1px;stroke-linecap:butt;stroke-linejoin:miter;stroke-opacity:1;font-family:Bitstream Vera Sans" />
    </g>
    <g
       id="g3339"
       transform="translate(-154.2,128.6)">
      <rect
         y="357.36218"
         x="535"
         height="45"
         width="30"
         id="rect3341"
         style="fill:#ffffff;stroke:#000000;stroke-width:1.20000005;stroke-miterlimit:4;stroke-dasharray:none" />
      <path
         id="path3343"
         d="M 534.92752,396.63466 L 542.37248,392.41219 L 534.92752,388.18972 L 534.92752,396.63466 z"
         style="fill:none;fill-rule:evenodd;stroke:#000000;stroke-width:0.55504328;stroke-linecap:butt;stroke-linejoin:miter;stroke-miterlimit:4;stroke-dasharray:none;stroke-opacity:1" />
      <path
         id="path3345"
         d="M 525,392.36218 L 535,392.36218"
         style="fill:none;fill-rule:evenodd;stroke:#000000;stroke-width:1px;stroke-linecap:butt;stroke-linejoin:miter;stroke-opacity:1" />
      <path
         id="path3347"
         d="M 565,367.36218 L 575,367.36218"
         style="fill:none;fill-rule:evenodd;stroke:#000000;stroke-width:1px;stroke-linecap:butt;stroke-linejoin:miter;stroke-opacity:1" />
      <path
         id="path3349"
         d="M 535,367.36218 L 525,367.36218"
         style="fill:none;fill-rule:evenodd;stroke:#000000;stroke-width:1px;stroke-linecap:butt;stroke-linejoin:miter;stroke-opacity:1" />
      <path
         id="path3351"
         d="M 544.2,364.64867 L 541.62853,364.64867 L 541.62853,371.26218 L 540.67148,371.26218 L 540.67148,364.64867 L 538.1,364.64867 L 538.1,363.76218 L 544.2,363.76218 L 544.2,364.64867"
         style="font-size:12px;font-style:normal;font-weight:normal;fill:#000000;fill-opacity:1;stroke:none;stroke-width:1px;stroke-linecap:butt;stroke-linejoin:miter;stroke-opacity:1;font-family:Bitstream Vera Sans" />
      <path
         id="path3353"
         d="M 561.5,372.23045 C 561.31599,372.27748 561.13351,372.3104 560.95258,372.32925 C 560.7747,372.35119 560.59221,372.36218 560.40519,372.36218 C 559.87156,372.36218 559.4422,372.21162 559.11713,371.91052 C 558.79513,371.61257 558.62033,371.18443 558.59269,370.62617 C 558.51912,370.63871 558.44703,370.64659 558.37651,370.64968 C 558.30903,370.65594 558.24308,370.65913 558.1787,370.65913 C 557.69724,370.65913 557.25866,370.57755 556.86304,370.41447 C 556.47051,370.25138 556.13623,370.0146 555.86021,369.70409 C 555.58423,369.3935 555.37108,369.01247 555.22082,368.56079 C 555.07357,368.10912 555,367.59321 555,367.01297 C 555,366.44215 555.07357,365.9309 555.22082,365.47922 C 555.368,365.02449 555.58266,364.63556 555.86486,364.31249 C 556.13472,364.00515 556.46896,363.76992 556.86764,363.60682 C 557.26937,363.44376 557.70644,363.36219 558.1787,363.36218 C 558.66937,363.36219 559.10945,363.44529 559.49893,363.61152 C 559.89146,363.77461 560.22421,364.00829 560.49716,364.31249 C 560.77628,364.62613 560.98934,365.01032 561.13661,365.46518 C 561.28685,365.91994 561.36201,366.43588 561.36201,367.01297 C 561.36201,367.86921 561.19023,368.59059 560.84677,369.17712 C 560.50635,369.76365 560.04789,370.17448 559.47136,370.40978 C 559.48361,370.76729 559.56639,371.04485 559.71974,371.24246 C 559.87309,371.44003 560.15214,371.53884 560.55698,371.53884 C 560.68274,371.53884 560.83143,371.51848 561.0032,371.47768 C 561.178,371.44003 561.30221,371.40552 561.37581,371.37414 L 561.5,371.37414 L 561.5,372.23045 M 560.41438,367.01297 C 560.41436,366.10345 560.21503,365.40243 559.81636,364.90999 C 559.41765,364.41442 558.87332,364.16667 558.18326,364.16667 C 557.48712,364.16667 556.93972,364.41442 556.54106,364.90999 C 556.14542,365.40243 555.94764,366.10345 555.94764,367.01297 C 555.94764,367.93198 556.15001,368.63608 556.55484,369.12538 C 556.95966,369.61154 557.50249,369.85461 558.18326,369.85461 C 558.86413,369.85461 559.40542,369.61154 559.80718,369.12538 C 560.21193,368.63608 560.41436,367.93198 560.41438,367.01297"
         style="font-size:12px;font-style:normal;font-weight:normal;fill:#000000;fill-opacity:1;stroke:none;stroke-width:1px;stroke-linecap:butt;stroke-linejoin:miter;stroke-opacity:1;font-family:Bitstream Vera Sans" />
    </g>
    <path
       sodipodi:type="arc"
       style="fill:#ffffff;stroke:#000000;stroke-width:1.20000005;stroke-miterlimit:4;stroke-dasharray:none"
       id="path3355"
       sodipodi:cx="500"
       sodipodi:cy="482.36218"
       sodipodi:rx="25"
       sodipodi:ry="25"
       d="M 525,482.36218 A 25,25 0 1 1 475,482.36218 A 25,25 0 1 1 525,482.36218 z"
       transform="translate(-39.9,24.9)" />
    <path
       style="fill:none;fill-rule:evenodd;stroke:#000000;stroke-width:1px;stroke-linecap:butt;stroke-linejoin:miter;stroke-opacity:1"
       d="M 310,632.36218 L 310,657.36218 L 320,662.36218 L 320,682.36218 L 310,687.36218 L 310,712.36218 L 350,692.36218 L 350,652.36218 L 310,632.36218 z"
       id="path3357"
       sodipodi:nodetypes="ccccccccc" />
    <path
       style="fill:#000000;fill-opacity:1;fill-rule:evenodd;stroke:#000000;stroke-width:1;stroke-linecap:butt;stroke-linejoin:miter;stroke-miterlimit:4;stroke-dasharray:none;stroke-opacity:1"
       d="M 332.5,537.36218 L 335,542.36218 L 337.5,537.36218 L 332.5,537.36218 z"
       id="path3359"
       sodipodi:nodetypes="cccc" />
    <path
       style="fill:none;fill-rule:evenodd;stroke:#000000;stroke-width:1px;stroke-linecap:butt;stroke-linejoin:miter;stroke-opacity:1"
       d="M 335,542.36218 L 335,612.36218"
       id="path3363" />
    <g
       id="g3369"
       transform="translate(-5,-0.2499974)">
      <g
         id="g3366">
        <path
           style="fill:#000000;fill-opacity:1;fill-rule:evenodd;stroke:#000000;stroke-width:1;stroke-linecap:butt;stroke-linejoin:miter;stroke-miterlimit:4;stroke-dasharray:none;stroke-opacity:1"
           d="M 392.5,537.61218 L 395,542.61218 L 397.5,537.61218 L 392.5,537.61218 z"
           id="path3361"
           sodipodi:nodetypes="cccc" />
      </g>
    </g>
    <path
       style="fill:none;fill-rule:evenodd;stroke:#000000;stroke-width:1px;stroke-linecap:butt;stroke-linejoin:miter;stroke-opacity:1"
       d="M 390,542.36218 L 390,612.36218"
       id="path3373" />
    <g
       id="g3375"
       transform="matrix(1,0,0,-1,5,1079.9744)">
      <g
         id="g3377">
        <path
           style="fill:#000000;fill-opacity:1;fill-rule:evenodd;stroke:#000000;stroke-width:1;stroke-linecap:butt;stroke-linejoin:miter;stroke-miterlimit:4;stroke-dasharray:none;stroke-opacity:1"
           d="M 392.5,537.61218 L 395,542.61218 L 397.5,537.61218 L 392.5,537.61218 z"
           id="path3379"
           sodipodi:nodetypes="cccc" />
      </g>
    </g>
    <path
       style="fill:none;fill-rule:evenodd;stroke:#000000;stroke-width:1px;stroke-linecap:butt;stroke-linejoin:miter;stroke-opacity:1"
       d="M 400,542.36218 L 400,612.36218"
       id="path3381" />
    <path
       style="fill:none;fill-rule:evenodd;stroke:#000000;stroke-width:1px;stroke-linecap:butt;stroke-linejoin:miter;stroke-opacity:1"
       d="M 450,307.36218 L 450,257.36218 L 500,282.36218 L 450,307.36218 z"
       id="path3383"
       sodipodi:nodetypes="cccc" />
    <path
       sodipodi:type="arc"
       style="fill:#000000;fill-opacity:1;stroke:#000000;stroke-width:1;stroke-miterlimit:4;stroke-dasharray:none"
       id="path3385"
       sodipodi:cx="296"
       sodipodi:cy="578.36218"
       sodipodi:rx="1"
       sodipodi:ry="1"
       d="M 297,578.36218 A 1,1 0 1 1 295,578.36218 A 1,1 0 1 1 297,578.36218 z" />
    <path
       sodipodi:type="arc"
       style="fill:#000000;fill-opacity:1;stroke:#000000;stroke-width:1;stroke-miterlimit:4;stroke-dasharray:none"
       id="path3387"
       sodipodi:cx="296"
       sodipodi:cy="578.36218"
       sodipodi:rx="1"
       sodipodi:ry="1"
       d="M 297,578.36218 A 1,1 0 1 1 295,578.36218 A 1,1 0 1 1 297,578.36218 z"
       transform="translate(39,-6)" />
    <path
       sodipodi:type="arc"
       style="fill:#000000;fill-opacity:1;stroke:#000000;stroke-width:1;stroke-miterlimit:4;stroke-dasharray:none"
       id="path3389"
       sodipodi:cx="296"
       sodipodi:cy="578.36218"
       sodipodi:rx="1"
       sodipodi:ry="1"
       d="M 297,578.36218 A 1,1 0 1 1 295,578.36218 A 1,1 0 1 1 297,578.36218 z"
       transform="translate(39,14)" />
    <path
       sodipodi:type="arc"
       style="fill:#000000;fill-opacity:1;stroke:#000000;stroke-width:1;stroke-miterlimit:4;stroke-dasharray:none"
       id="path3391"
       sodipodi:cx="296"
       sodipodi:cy="578.36218"
       sodipodi:rx="1"
       sodipodi:ry="1"
       d="M 297,578.36218 A 1,1 0 1 1 295,578.36218 A 1,1 0 1 1 297,578.36218 z"
       transform="translate(39,34)" />
    <path
       sodipodi:type="arc"
       style="fill:#000000;fill-opacity:1;stroke:#000000;stroke-width:1;stroke-miterlimit:4;stroke-dasharray:none"
       id="path3393"
       sodipodi:cx="296"
       sodipodi:cy="578.36218"
       sodipodi:rx="1"
       sodipodi:ry="1"
       d="M 297,578.36218 A 1,1 0 1 1 295,578.36218 A 1,1 0 1 1 297,578.36218 z"
       transform="translate(39,-26)" />
    <path
       sodipodi:type="arc"
       style="fill:#000000;fill-opacity:1;stroke:#000000;stroke-width:1;stroke-miterlimit:4;stroke-dasharray:none"
       id="path3395"
       sodipodi:cx="296"
       sodipodi:cy="578.36218"
       sodipodi:rx="1"
       sodipodi:ry="1"
       d="M 297,578.36218 A 1,1 0 1 1 295,578.36218 A 1,1 0 1 1 297,578.36218 z"
       transform="translate(94,14)" />
  </g>
</svg>
